<?xml version="1.0" encoding="UTF-8"?>
<svg id="_Слой_2" data-name="Слой 2" xmlns="http://www.w3.org/2000/svg" viewBox="0 0 185.78 156.63">
  <defs>
    <style>
      .cls-1 {
        stroke-width: 0px;
      }
    </style>
  </defs>
  <g id="_Слой_1-2" data-name="Слой 1">
    <path class="cls-1" d="M80.39,58.65c0-12.88,0-25.75,0-38.63,0-7.59-3.51-11.71-11.12-12.99-2.58-.43-5.2-.83-7.83-.63-1.79.14-2.57-.4-2.25-2.28.12-.73.04-1.5-.04-2.24-.15-1.31.41-1.84,1.69-1.75.5.04,1,.02,1.5.02,20.25,0,40.5-.01,60.75.01,1.08,0,2.68-.57,3.16.46.72,1.55.4,3.45.15,5.16-.13.89-1.22.61-1.94.6-3.52-.06-6.98.29-10.37,1.28-5.88,1.73-8.7,5.32-8.7,11.47-.03,26.63-.02,53.25-.02,79.88,0,3.17.04,3.17,3.37,3.23,17.27.3,29.85-9.78,34.05-27.25,1.59-6.6,2.05-13.32,2.12-20.07.09-8.37.09-16.75.21-25.12.05-3.76.61-7.47,1.48-11.12,2.02-8.54,7.24-13.97,15.69-16.42C169.36.18,176.58.04,183.84.07c1.54,0,1.82.66,1.88,2.03.17,3.85.24,3.84-3.64,3.81-2-.02-4.01-.03-5.96.5-4.8,1.3-7.19,4.22-7.19,9.19,0,6.12.19,12.25.32,18.37.22,10.26.15,20.5-1.92,30.61-4.36,21.28-17.27,34.59-37.98,40.59-6.98,2.02-14.1,3.31-21.35,3.69-2.12.11-2.71.81-2.68,2.89.11,8.5,0,17,.05,25.5.04,6.05,3.36,9.97,8.52,12.58,3.75,1.89,7.8,2.63,11.95,2.78,1.61.06,2.59.41,2.48,2.34-.12,2.01-1.5,1.65-2.68,1.65-21.88.01-43.75,0-65.63,0-1.23,0-2.5.24-2.58-1.75-.09-2.06,1.14-2.17,2.6-2.25,4.92-.27,9.65-1.18,13.88-3.92,4.07-2.64,6.4-6.33,6.46-11.18.11-8.62-.05-17.25.07-25.88.03-2.23-.86-2.62-2.83-2.76-10.65-.76-21.05-2.72-30.81-7.24-16.1-7.46-25.1-20.38-28.47-37.55-1.74-8.88-2.05-17.86-1.92-26.87.1-6.62.17-13.25.51-19.87.43-8.44-5.08-11.27-10.8-11.42-.87-.02-1.75-.03-2.62-.02C-.13,5.96-.06,5.96.02,2.3.06.78.43.1,2.1.07c6.77-.12,13.52.08,20.1,1.76,10.78,2.75,16.33,9.61,17.83,21.41,1.16,9.1.73,18.22.79,27.34.04,7,.09,14,1.42,20.91,1.9,9.85,5.72,18.63,14.14,24.74,6.56,4.76,14,6.27,21.97,6.01,2.44-.08,2.05-1.63,2.05-3.09,0-13.5,0-27,0-40.5h-.01Z"/>
  </g>
</svg>
