<svg xmlns="http://www.w3.org/2000/svg" xmlns:xlink="http://www.w3.org/1999/xlink" xml:space="preserve" style="shape-rendering:geometricPrecision;text-rendering:geometricPrecision;image-rendering:optimizeQuality;" viewBox="0 0 0.984264 1.2416099999999999" x="0px" y="0px" fill-rule="evenodd" clip-rule="evenodd"><defs><style type="text/css">
   
    .fil0 {fill:black}
   
  </style></defs><g><path class="fil0" d="M0.492132 0l0 0c0.270679,0 0.492132,0.221453 0.492132,0.492132l0 0.00902356c0,0.270679 -0.221453,0.492132 -0.492132,0.492132l0 0c-0.270679,0 -0.492132,-0.221453 -0.492132,-0.492132l0 -0.00902356c0,-0.270679 0.221453,-0.492132 0.492132,-0.492132zm0.0360533 0.507913c0.0340738,0 0.0598067,-0.00574723 0.0774852,-0.0172826 0.0176785,-0.0113989 0.0294597,-0.0254871 0.0352069,-0.0420053 0.00589739,-0.0165182 0.00974708,-0.044053 0.0115354,-0.0824816 0.00166547,-0.0427698 0.011276,-0.0746594 0.0286815,-0.0955323 0.0174328,-0.0208866 0.0459915,-0.0313845 0.0856897,-0.0313845l0 0.0143476c-0.0142111,0.00102385 -0.0239445,0.00652536 -0.0290774,0.0166547 -0.00511926,0.010102 -0.00768572,0.0316302 -0.00768572,0.0644208 0,0.0480255 -0.00498275,0.0850344 -0.0151121,0.111149 -0.0101157,0.0261287 -0.0304835,0.0473839 -0.0609534,0.0636564 -0.0306064,0.0162724 -0.0724888,0.0249684 -0.12577,0.0262516l0 0.118985c0,0.0291866 0.00166547,0.0481484 0.00513292,0.0567215 0.00331728,0.00870958 0.0104979,0.0156308 0.0213781,0.0208866 0.0108801,0.00524213 0.0276577,0.00793145 0.0504691,0.00793145l0 0.0138288 -0.22593 0 0 -0.0138288c0.0222927,-0.000259376 0.0388109,-0.00268932 0.049691,-0.00742635 0.0108938,-0.00461416 0.0181973,-0.0112624 0.0217876,-0.0202313 0.00357666,-0.00883244 0.0055015,-0.0281764 0.0055015,-0.0578818l0 -0.118985c-0.0538001,-0.00128323 -0.095546,-0.00985629 -0.125374,-0.0258694 -0.029719,-0.0159994 -0.0499504,-0.0370089 -0.0605848,-0.0628782 -0.0106344,-0.0258694 -0.0160131,-0.0635198 -0.0160131,-0.112706 0,-0.0315074 -0.00230708,-0.0525032 -0.00703046,-0.0628782 -0.00475068,-0.010375 -0.014607,-0.0162724 -0.029719,-0.0178014l0 -0.0143476c0.0253643,0.000518752 0.0457184,0.00461416 0.0612128,0.0120405 0.0154943,0.00756286 0.0279307,0.0207501 0.0372819,0.0398211 0.00947405,0.0189618 0.0147162,0.0440666 0.0159994,0.0750552 0.00178833,0.0382921 0.00537864,0.0655675 0.0110167,0.0820994 0.00562437,0.0165182 0.017542,0.0306064 0.0354799,0.0422647 0.0180471,0.0116583 0.0439165,0.0174055 0.0777309,0.0174055l0 -0.16353c0,-0.0293368 -0.00180198,-0.0482986 -0.00513292,-0.0568716 -0.00331728,-0.00857306 -0.010375,-0.0154943 -0.0211323,-0.0204907 -0.0107436,-0.0049964 -0.0276577,-0.00754921 -0.0507149,-0.00782224l0 -0.0139517 0.22593 0 0 0.0139517c-0.0230572,0.000273027 -0.0399712,0.00282583 -0.0507149,0.00769937 -0.0107573,0.00485989 -0.017815,0.0116583 -0.0211323,0.0203542 -0.00346745,0.00883244 -0.00513292,0.0277942 -0.00513292,0.057131l0 0.16353z"/></g><text x="0" y="15.993288" fill="#000000" font-size="5px" font-weight="bold" font-family="'Helvetica Neue', Helvetica, Arial-Unicode, Arial, Sans-serif">Created by Nick Novell</text><text x="0" y="20.993288" fill="#000000" font-size="5px" font-weight="bold" font-family="'Helvetica Neue', Helvetica, Arial-Unicode, Arial, Sans-serif">from the Noun Project</text></svg>