<svg xmlns="http://www.w3.org/2000/svg" version="1.1" viewBox="-5.0 -10.0 110.0 135.0">
 <path d="m93.023 8.9453c-0.97656-4.1328-5.1172-6.6953-9.25-5.7227-0.21484 0.050782-0.42969 0.10938-0.63672 0.17969-5.0938 1.6641-9.5312 4.8984-12.672 9.2422-3.1445 4.3398-4.8359 9.5625-4.8281 14.922v12.258-0.003907c-0.007813 5.8086-3.0117 11.199-7.9453 14.258v-44.238c0-4.2461-3.4453-7.6914-7.6914-7.6914s-7.6914 3.4453-7.6914 7.6914v45.449c-3.0391-1.2891-5.6289-3.4414-7.4531-6.1914-1.8203-2.75-2.7969-5.9766-2.7969-9.2773v-14.062c0-4.7461-1.3281-9.4023-3.8398-13.438-2.5078-4.0312-6.0977-7.2812-10.359-9.3789-1.832-0.9375-3.9648-1.1016-5.9219-0.44922-1.9531 0.64844-3.5664 2.0508-4.4766 3.8984-0.91016 1.8516-1.0391 3.9844-0.36328 5.9297 0.67969 1.9453 2.1094 3.5391 3.9688 4.4219 3.4453 1.6797 5.625 5.1797 5.6094 9.0156v14.062c0 15.5 11.016 28.477 25.633 31.504v18.836-0.003906c0 4.2461 3.4453 7.6914 7.6914 7.6914s7.6914-3.4453 7.6914-7.6914v-19.398c13.453-3.8516 23.328-16.266 23.328-30.938v-12.254c-0.007812-4.3203 2.7578-8.1641 6.8555-9.5312 3.8242-1.2188 6.0664-5.1797 5.1484-9.0898z"/>
<text x="0.0" y="117.5" font-size="5.0" font-weight="bold" font-family="Arbeit Regular, Helvetica, Arial-Unicode, Arial, Sans-serif" fill="#000000">Created by BEARicons</text><text x="0.0" y="122.5" font-size="5.0" font-weight="bold" font-family="Arbeit Regular, Helvetica, Arial-Unicode, Arial, Sans-serif" fill="#000000">from Noun Project</text></svg>