<svg xmlns="http://www.w3.org/2000/svg" xmlns:xlink="http://www.w3.org/1999/xlink" version="1.1" x="0px" y="0px" viewBox="0 0 100 125" enable-background="new 0 0 100 100" xml:space="preserve"><path d="M99.964,16.094v3.251c0,0-9.126-1.773-9.115,5.193c0.047,17.956,5.694,47.596-34.139,50.016c0,7.967,0,15.561,0,15.561  s-0.171,7.656,12.309,7.838V100H30.946v-2.047c12.479-0.182,12.296-7.838,12.296-7.838s0-7.594,0-15.561  C3.42,72.135,9.069,42.495,9.102,24.539C9.125,17.572,0,19.345,0,19.345v-3.251c24.99-0.909,21.638,10.308,22.037,31.299  c0.511,26.822,21.206,23.343,21.206,23.343s0-37.277,0-44.879c0-7.591-11.398-6.33-11.398-6.33v-3.433h36.276v3.433  c0,0-11.409-1.261-11.409,6.33c0,7.603,0,44.879,0,44.879s20.706,3.479,21.218-23.343C78.327,26.402,74.973,15.185,99.964,16.094z"/><text x="0" y="115" fill="#000000" font-size="5px" font-weight="bold" font-family="'Helvetica Neue', Helvetica, Arial-Unicode, Arial, Sans-serif">Created by gilbert bages</text><text x="0" y="120" fill="#000000" font-size="5px" font-weight="bold" font-family="'Helvetica Neue', Helvetica, Arial-Unicode, Arial, Sans-serif">from the Noun Project</text></svg>