<svg xmlns="http://www.w3.org/2000/svg" version="1.1" viewBox="-5.0 -10.0 110.0 135.0">
 <path d="m40.77 6.2461v3.1445h6.1289v49.719c-4.6992-0.44531-8.9727-1.7812-12.812-3.9297-2.6797-1.5117-5.082-3.3711-6.8477-5.6172-1.7539-2.2266-2.8906-4.9023-3.0352-7.5156-0.13281-2.332 0.47656-4.8984 1.3711-7.5977 0.89453-2.707 2.082-5.6094 2.7148-8.9336 0.41016-2.168 0.58203-4.4766 0.24219-6.8477-0.33984-2.3867-1.1914-4.7656-2.7148-6.8203-2.457-3.3164-6.332-5.2734-10.406-5.3633l-0.14844 6.2734c2.1094 0.070313 4.3086 1.1719 5.5391 2.8359 0.80078 1.0742 1.3359 2.4688 1.5508 3.957 0.21875 1.4922 0.11328 3.125-0.19922 4.7891-0.48438 2.5312-1.5234 5.1914-2.5039 8.1445-0.98047 2.9609-1.9023 6.2773-1.6914 9.9102 0.23047 4.1484 1.9492 7.9688 4.3828 11.055 2.418 3.0742 5.4961 5.4023 8.7148 7.1953 4.7617 2.668 10.105 4.2812 15.852 4.7422v25.23h-12.656v3.1367h31.57v-3.1367h-12.668v-25.207c5.7578-0.47266 11.109-2.0977 15.879-4.7656 3.1875-1.7969 6.2656-4.125 8.6797-7.1953 2.4375-3.0938 4.1328-6.9141 4.3867-11.043 0.21094-3.6484-0.71875-6.9648-1.6953-9.9219-0.98047-2.9648-2.0312-5.6016-2.5-8.1055-0.29688-1.6836-0.41406-3.3281-0.23438-4.8125 0.23438-1.4883 0.75-2.875 1.5469-3.9453 1.2227-1.6602 3.4258-2.7734 5.5352-2.8203l-0.11719-6.2734c-4.0742 0.089844-7.9414 2.043-10.398 5.3633-1.5312 2.0586-2.3789 4.4414-2.7227 6.8047-0.35547 2.3672-0.11719 4.6797 0.17578 6.8203 0.61328 3.3438 1.8242 6.2617 2.7227 8.9609 0.88672 2.6953 1.5117 5.2578 1.3828 7.5703-0.11719 2.6328-1.2891 5.3086-3.0312 7.5312-1.75 2.2305-4.1562 4.0898-6.8398 5.5898-3.8086 2.1484-8.0742 3.4922-12.773 3.9336v-49.711h6.1289v-3.1445z"/>
<text x="0.0" y="117.5" font-size="5.0" font-weight="bold" font-family="Arbeit Regular, Helvetica, Arial-Unicode, Arial, Sans-serif" fill="#000000">Created by Cuan Studio</text><text x="0.0" y="122.5" font-size="5.0" font-weight="bold" font-family="Arbeit Regular, Helvetica, Arial-Unicode, Arial, Sans-serif" fill="#000000">from Noun Project</text></svg>